<svg xmlns="http://www.w3.org/2000/svg" viewBox="0 0 512 512">
  <defs>
    <linearGradient id="grad1" x1="0%" y1="0%" x2="100%" y2="100%">
      <stop offset="0%" style="stop-color:#283718;stop-opacity:1" />
      <stop offset="100%" style="stop-color:#4A6247;stop-opacity:1" />
    </linearGradient>
  </defs>
  <rect width="512" height="512" rx="128" fill="url(#grad1)" />
  <path d="M352 128c-32 0-64 16-96 48-32 32-64 80-96 144-16 32-32 64-48 96 0 0 0 0 0 0-16 32-32 48-48 48 0 0 16-16 32-32 16-16 32-48 48-80 0 0 0 0 0 0 16-32 32-64 48-96 32-64 64-112 96-144 32-32 64-48 96-48 16 0 32 8 48 24-16-16-32-24-48-24z" fill="#ffffff" opacity="0.2"/>
  <path d="M368 144c-32 0-64 16-96 48-32 32-64 80-96 144-16 32-32 64-48 96 0 0 0 0 0 0-16 32-32 48-48 48 0 0 16-16 32-32 16-16 32-48 48-80 0 0 0 0 0 0 16-32 32-64 48-96 32-64 64-112 96-144 32-32 64-48 96-48 16 0 32 8 48 24-16-16-32-24-48-24z" fill="#ffffff"/>
  <path d="M176 416c0 16-8 32-16 48-8 16-16 32-16 32s16-8 32-16c16-8 32-16 32-16s-16 0-32-48z" fill="#ffffff"/>
</svg>
